<?xml version="1.0" standalone="no"?>
<svg xmlns:xlink="http://www.w3.org/1999/xlink" id="wave" style="transform:rotate(0deg); transition: 0.3s" viewBox="0 0 1440 490" version="1.1" xmlns="http://www.w3.org/2000/svg"><defs><linearGradient id="sw-gradient-0" x1="0" x2="0" y1="1" y2="0"><stop stop-color="rgba(37, 99, 235, 1)" offset="0%"/><stop stop-color="rgba(67, 112, 212, 1)" offset="100%"/></linearGradient></defs><path style="transform:translate(0, 0px); opacity:1" fill="url(#sw-gradient-0)" d="M0,49L34.3,49C68.6,49,137,49,206,81.7C274.3,114,343,180,411,212.3C480,245,549,245,617,236.8C685.7,229,754,212,823,245C891.4,278,960,359,1029,367.5C1097.1,376,1166,310,1234,302.2C1302.9,294,1371,343,1440,310.3C1508.6,278,1577,163,1646,122.5C1714.3,82,1783,114,1851,122.5C1920,131,1989,114,2057,106.2C2125.7,98,2194,98,2263,130.7C2331.4,163,2400,229,2469,253.2C2537.1,278,2606,261,2674,253.2C2742.9,245,2811,245,2880,269.5C2948.6,294,3017,343,3086,326.7C3154.3,310,3223,229,3291,163.3C3360,98,3429,49,3497,98C3565.7,147,3634,294,3703,367.5C3771.4,441,3840,441,3909,416.5C3977.1,392,4046,343,4114,302.2C4182.9,261,4251,229,4320,212.3C4388.6,196,4457,196,4526,204.2C4594.3,212,4663,229,4731,261.3C4800,294,4869,343,4903,367.5L4937.1,392L4937.1,490L4902.9,490C4868.6,490,4800,490,4731,490C4662.9,490,4594,490,4526,490C4457.1,490,4389,490,4320,490C4251.4,490,4183,490,4114,490C4045.7,490,3977,490,3909,490C3840,490,3771,490,3703,490C3634.3,490,3566,490,3497,490C3428.6,490,3360,490,3291,490C3222.9,490,3154,490,3086,490C3017.1,490,2949,490,2880,490C2811.4,490,2743,490,2674,490C2605.7,490,2537,490,2469,490C2400,490,2331,490,2263,490C2194.3,490,2126,490,2057,490C1988.6,490,1920,490,1851,490C1782.9,490,1714,490,1646,490C1577.1,490,1509,490,1440,490C1371.4,490,1303,490,1234,490C1165.7,490,1097,490,1029,490C960,490,891,490,823,490C754.3,490,686,490,617,490C548.6,490,480,490,411,490C342.9,490,274,490,206,490C137.1,490,69,490,34,490L0,490Z"/><defs><linearGradient id="sw-gradient-1" x1="0" x2="0" y1="1" y2="0"><stop stop-color="rgba(37, 99, 235, 1)" offset="0%"/><stop stop-color="rgba(67.948, 125.907, 253.043, 1)" offset="100%"/></linearGradient></defs><path style="transform:translate(0, 50px); opacity:0.9" fill="url(#sw-gradient-1)" d="M0,245L34.3,228.7C68.6,212,137,180,206,155.2C274.3,131,343,114,411,147C480,180,549,261,617,253.2C685.7,245,754,147,823,130.7C891.4,114,960,180,1029,228.7C1097.1,278,1166,310,1234,277.7C1302.9,245,1371,147,1440,122.5C1508.6,98,1577,147,1646,204.2C1714.3,261,1783,327,1851,367.5C1920,408,1989,425,2057,375.7C2125.7,327,2194,212,2263,212.3C2331.4,212,2400,327,2469,359.3C2537.1,392,2606,343,2674,285.8C2742.9,229,2811,163,2880,114.3C2948.6,65,3017,33,3086,49C3154.3,65,3223,131,3291,179.7C3360,229,3429,261,3497,245C3565.7,229,3634,163,3703,155.2C3771.4,147,3840,196,3909,212.3C3977.1,229,4046,212,4114,220.5C4182.9,229,4251,261,4320,285.8C4388.6,310,4457,327,4526,310.3C4594.3,294,4663,245,4731,261.3C4800,278,4869,359,4903,400.2L4937.1,441L4937.1,490L4902.9,490C4868.6,490,4800,490,4731,490C4662.9,490,4594,490,4526,490C4457.1,490,4389,490,4320,490C4251.4,490,4183,490,4114,490C4045.7,490,3977,490,3909,490C3840,490,3771,490,3703,490C3634.3,490,3566,490,3497,490C3428.6,490,3360,490,3291,490C3222.9,490,3154,490,3086,490C3017.1,490,2949,490,2880,490C2811.4,490,2743,490,2674,490C2605.7,490,2537,490,2469,490C2400,490,2331,490,2263,490C2194.3,490,2126,490,2057,490C1988.6,490,1920,490,1851,490C1782.9,490,1714,490,1646,490C1577.1,490,1509,490,1440,490C1371.4,490,1303,490,1234,490C1165.7,490,1097,490,1029,490C960,490,891,490,823,490C754.3,490,686,490,617,490C548.6,490,480,490,411,490C342.9,490,274,490,206,490C137.1,490,69,490,34,490L0,490Z"/><defs><linearGradient id="sw-gradient-2" x1="0" x2="0" y1="1" y2="0"><stop stop-color="rgba(37, 99, 235, 1)" offset="0%"/><stop stop-color="rgba(37, 99, 235, 1)" offset="100%"/></linearGradient></defs><path style="transform:translate(0, 100px); opacity:0.8" fill="url(#sw-gradient-2)" d="M0,441L34.3,441C68.6,441,137,441,206,400.2C274.3,359,343,278,411,269.5C480,261,549,327,617,343C685.7,359,754,327,823,334.8C891.4,343,960,392,1029,392C1097.1,392,1166,343,1234,277.7C1302.9,212,1371,131,1440,155.2C1508.6,180,1577,310,1646,334.8C1714.3,359,1783,278,1851,220.5C1920,163,1989,131,2057,147C2125.7,163,2194,229,2263,236.8C2331.4,245,2400,196,2469,171.5C2537.1,147,2606,147,2674,130.7C2742.9,114,2811,82,2880,89.8C2948.6,98,3017,147,3086,138.8C3154.3,131,3223,65,3291,98C3360,131,3429,261,3497,326.7C3565.7,392,3634,392,3703,351.2C3771.4,310,3840,229,3909,228.7C3977.1,229,4046,310,4114,359.3C4182.9,408,4251,425,4320,432.8C4388.6,441,4457,441,4526,416.5C4594.3,392,4663,343,4731,310.3C4800,278,4869,261,4903,253.2L4937.1,245L4937.1,490L4902.9,490C4868.6,490,4800,490,4731,490C4662.9,490,4594,490,4526,490C4457.1,490,4389,490,4320,490C4251.4,490,4183,490,4114,490C4045.7,490,3977,490,3909,490C3840,490,3771,490,3703,490C3634.3,490,3566,490,3497,490C3428.6,490,3360,490,3291,490C3222.9,490,3154,490,3086,490C3017.1,490,2949,490,2880,490C2811.4,490,2743,490,2674,490C2605.7,490,2537,490,2469,490C2400,490,2331,490,2263,490C2194.3,490,2126,490,2057,490C1988.6,490,1920,490,1851,490C1782.9,490,1714,490,1646,490C1577.1,490,1509,490,1440,490C1371.4,490,1303,490,1234,490C1165.7,490,1097,490,1029,490C960,490,891,490,823,490C754.3,490,686,490,617,490C548.6,490,480,490,411,490C342.9,490,274,490,206,490C137.1,490,69,490,34,490L0,490Z"/></svg>